<svg xmlns="http://www.w3.org/2000/svg" viewBox="0 0 32 32">
  <defs/>
  <path d="M31 18.481A4.523 4.523 0 0126.481 23H20v-1h6.481a3.518 3.518 0 00.886-6.925c-.478-.124-1.456-.325-2.448-.52a3.781 3.781 0 00-3.7-4.555 3.75 3.75 0 00-2.231.742L19 10.5A6.5 6.5 0 106.5 13a4.5 4.5 0 000 9H11v1H6.5A5.506 5.506 0 011 17.5c0-2.581 1.79-4.747 4.192-5.336A7.486 7.486 0 015 10.5C5 6.364 8.364 3 12.5 3c3.694 0 6.766 2.687 7.381 6.207A4.696 4.696 0 0121.219 9a4.784 4.784 0 014.778 4.751c.673.137 1.272.266 1.622.356A4.519 4.519 0 0131 18.481zM16 28.18V16h-1v12.18l-2.95-2.949-.707.707 4.157 4.157 4.157-4.157-.707-.708L16 28.18z"/>
</svg>
