<svg xmlns="http://www.w3.org/2000/svg" viewBox="0 0 32 32">
  <defs/>
  <path d="M30.7 11.4c-.26-.34-.66-.4-1.1-.4H26V8.5c0-.83-.67-1.5-1.5-1.5H12l-.21-.11-1.56-2.33A1.25 1.25 0 009.2 4H3.5C2.67 4 2 4.67 2 5.5v20c0 .83.67 1.5 1.5 1.5h22.9c.73 0 1.42-.65 1.58-1.38l3-13.09c.09-.43 0-.8-.27-1.14zM3.5 26a.5.5 0 01-.5-.5v-20c0-.28.22-.5.5-.5h5.7l.2.11 1.55 2.33c.24.35.63.56 1.04.56H24.5c.28 0 .5.22.5.5V11H8.6c-.73 0-1.41.46-1.58 1.19l-3 12.9c-.06.3-.03.63.08.91h-.6zm26.45-13.5l-3 13a.66.66 0 01-.6.5h-21c-.28 0-.46-.22-.4-.5l3-13c.06-.28.34-.5.61-.5h21c.28 0 .45.22.39.5z"/>
</svg>
