<svg xmlns="http://www.w3.org/2000/svg" viewBox="0 0 32 32">
  <defs/>
  <path d="M25.8 18.66c-1.5-.88-4.44-1.06-7.77-.44a14.88 14.88 0 01-1.36-3.12c.81-2.2 1.33-4.24 1.33-5.6 0-1.9-.39-4.02-1.48-4.28-.38-.1-.95.02-1.47 1.06-.55 1.1-.56 5.04.57 8.81a43.96 43.96 0 01-1.94 4.36c-1.16.44-2.32.98-3.43 1.61l.5.87c.7-.4 1.44-.76 2.18-1.09-1.42 2.54-2.98 4.62-4.23 5.24-.56.28-.8.1-.9.02-.36-.28-.54-.58-.54-.93 0-.9 1.11-1.95 1.54-2.28l-.6-.8c-.2.16-1.94 1.53-1.94 3.08 0 .46.16 1.13.94 1.73.22.17.55.33.97.33.28 0 .6-.07.98-.26 1.56-.77 3.52-3.5 5.2-6.68 1.07-.4 2.16-.7 3.22-.93C19.2 21.74 21.41 23 24 23c1.04 0 3-.52 3-2.5 0-.52-.2-1.27-1.2-1.84zM15.96 6.72c.2-.4.34-.5.34-.52.22.12.71 1.21.71 3.3 0 .98-.3 2.35-.79 3.9-.68-3.1-.61-5.98-.26-6.68zM15 19c.4-.81.77-1.65 1.1-2.46.26.66.56 1.3.9 1.9a26 26 0 00-2 .56zM24 22a6.46 6.46 0 01-5.35-2.85c2.88-.48 5.4-.35 6.66.38.69.4.69.83.69.97 0 1.47-1.92 1.5-2 1.5zm3-19H5C3 3 3 5 3 5v22c0 2 2 2 2 2h22c2 0 2-2 2-2V5c0-2-2-2-2-2zm1 23.99c-.01.46-.2 1.01-1 1.01H5.01C4.55 27.99 4 27.8 4 27V5.01C4.01 4.55 4.2 4 5 4h22c.45.01 1 .2 1 1v21.99z"/>
</svg>
