<svg xmlns="http://www.w3.org/2000/svg" viewBox="0 0 32 32">
  <defs/>
  <path d="M15.5 15.905l4.157 4.157-.707.708L16 17.82V30h-1V17.82l-2.95 2.949-.707-.707 4.157-4.157zm12.119-1.798c-.35-.091-.949-.219-1.622-.356A4.785 4.785 0 0021.219 9c-.467 0-.912.081-1.338.207C19.266 5.687 16.194 3 12.5 3 8.364 3 5 6.364 5 10.5c0 .572.07 1.128.192 1.664C2.79 12.753 1 14.919 1 17.5 1 20.532 3.467 23 6.5 23H11v-1H6.5a4.5 4.5 0 010-9A6.5 6.5 0 1119 10.5l-.013.242A3.752 3.752 0 0121.219 10a3.781 3.781 0 013.7 4.555c.992.195 1.971.396 2.448.52A3.518 3.518 0 0126.481 22H20v1h6.481a4.519 4.519 0 001.138-8.893z"/>
</svg>
